# xmcd
#
# Track frame offsets:
#	150
#	9691
#	19530
#	31269
#	48670
#	63177
#	84561
#	95526
#	113560
#	125895
#	143754
#	154674
#	165676
#	179793
#	192302
#	205299
#	216893
#	226083
#	237710
#	247539
#	256294
#	267353
#	276645
#	286129
#	294890
#
# Disc length: 4063 seconds
#
# Revision: 1
# Processed by: cddbd v1.5.2PL0 Copyright (c) Steve Scherf et al.
# Submitted via: EasyCDDAExtractor 12.0.1.1
#
DISCID=6c0fdd19
DTITLE=Johnny Cash - Complete Recording Sessions [Cd 15] 1965 Sessions
DYEAR=2005
DGENRE=Country
TTITLE0=Cattle Call (Instrumental)
TTITLE1=Bill's Theme (Instrumental)
TTITLE2=A Letter From Home
TTITLE3=Hardin Wouldn't Run (Alt.)
TTITLE4=Twenty-Five Minutes To Go
TTITLE5=A Cup Of Coffee
TTITLE6=Rodeo Hand
TTITLE7=Stampede
TTITLE8=Reflections
TTITLE9=Sweet Betsy From Pike
TTITLE10=Hiawatha's Vision
TTITLE11=Dirty Old Egg Sucking Hound
TTITLE12=Mean As Hell
TTITLE13=Green Grow The Lilacs
TTITLE14=Thunderball
TTITLE15=The Sons Of Katie Elder
TTITLE16=A Certain Kinda Hurtin'
TTITLE17=Wer Kennt Den Weg?
TTITLE18=In Virginia
TTITLE19=Kleine Rosmarie (V.O.)
TTITLE20=Besser So, Jenny-Jo (V.O.)
TTITLE21=Wer Kennt Den Weg? (Overdub)
TTITLE22=In Virginia (Overdub)
TTITLE23=Kleine Rosmarie (Overdub)
TTITLE24=Besser So, Jenny-Jo (Overdub)
EXTD=
EXTT0=
EXTT1=
EXTT2=
EXTT3=
EXTT4=
EXTT5=
EXTT6=
EXTT7=
EXTT8=
EXTT9=
EXTT10=
EXTT11=
EXTT12=
EXTT13=
EXTT14=
EXTT15=
EXTT16=
EXTT17=
EXTT18=
EXTT19=
EXTT20=
EXTT21=
EXTT22=
EXTT23=
EXTT24=
PLAYORDER=
